<svg width="1024" height="1024" viewBox="0 0 1024 1024" fill="none" xmlns="http://www.w3.org/2000/svg">
<rect width="1024" height="1024" fill="white"/>
<path d="M261.21 663.862L242.899 594.228C242.763 593.708 243.032 593.184 243.543 593.019C289.323 578.29 378.659 491.611 417.839 449.849C386.471 540.552 261.834 695.434 201.12 764.243C199.539 766.035 198.388 768.109 198.027 770.47C195.544 786.709 208.458 787.731 215.697 786.036C302.813 753.053 374.534 767.262 401.588 779.23C402.888 779.806 403.894 780.825 404.761 781.952C407.759 785.851 411.68 786.923 415.219 786.996C420.673 787.108 425.926 784.078 429.54 779.992C461.226 744.154 501.76 646.457 518.963 599.443C526.239 667.237 556.283 738.075 570.396 765.019C579.428 786.178 592.542 787.847 597.971 786.036C645.679 770.477 763.878 779.553 817.014 786.036C829.747 784.502 826.651 772.438 823.511 766.598C708.51 664.524 609.459 466.906 574.309 380.855C648.233 513.511 735.369 598.153 770.233 624.34C770.551 624.579 770.677 624.957 770.587 625.344C768.229 635.453 763.823 654.34 762.549 659.782C762.36 660.587 762.27 661.431 762.298 662.257C763.124 686.64 776.12 681.817 784.2 675.038C785.593 673.869 786.498 672.242 786.954 670.48L812.093 573.323C812.365 572.27 812.395 571.155 812.133 570.1C807.482 551.362 796.38 555.422 790.178 560.793C789.24 561.605 788.637 562.721 788.332 563.923L779.61 598.308C779.459 598.904 778.895 599.262 778.341 598.996C734.636 577.969 596.65 367.467 531.301 261.924C530.378 260.433 529.834 258.818 529.412 257.116C528.349 252.829 526.387 248.551 524.878 245.745C524.125 244.345 523.134 243.073 521.934 242.03C512.49 233.812 504.72 237.207 500.627 241.344C499.223 242.763 498.435 244.642 497.845 246.549C488.617 276.361 473.883 317.601 467.488 334.981C409.263 445.666 289.613 534.506 236.459 565.478C236.094 565.691 235.64 565.622 235.315 565.352C216.119 549.388 210.989 561.007 210.663 571.873C210.568 575.06 211.283 578.179 212.219 581.227C221.086 610.101 236.071 660.188 238.29 672.54C238.547 673.973 239.199 675.351 240.352 676.241C253.763 686.607 259.684 677.337 261.46 669.34C261.862 667.53 261.681 665.656 261.21 663.862Z" fill="black"/>
</svg>
