<svg width="1024" height="1024" viewBox="0 0 1024 1024" fill="none" xmlns="http://www.w3.org/2000/svg">
<rect width="1024" height="1024" fill="#FF9A32"/>
<g opacity="0.75">
<path d="M87 475.62L153.478 544.13L197.908 498.74V580H219.791V444L153.478 512L87 444V475.62Z" fill="white"/>
<path d="M235.815 578.13V580H324.177V557.22H257.864L235.815 578.13ZM235.815 444L257.864 466.78H324.177V444H235.815ZM235.815 500.78V523.39H257.864H324.177V500.78H257.864H235.815Z" fill="white"/>
<path d="M424.728 514.89C430.033 507.24 432.52 498.74 432.52 489.22C432.52 476.81 428.21 466.27 419.589 457.26C410.968 448.42 400.524 444 388.422 444H330.233L341.672 464.23L344.158 466.78H388.422C394.39 466.78 399.529 468.99 403.84 473.41C408.316 477.83 410.471 483.1 410.471 489.22C410.471 495.51 408.316 500.95 403.84 505.37C399.529 509.79 394.39 512 388.422 512L368.694 511.83L407.155 580H432.52L405.332 531.21C413.124 527.98 419.589 522.54 424.728 514.89Z" fill="white"/>
<path d="M505.421 574.56C513.379 578.13 521.999 580 531.117 580C540.235 580 548.856 578.3 556.813 574.73L531.117 557.22C524.983 557.22 519.347 556.03 513.876 553.82C508.571 551.44 503.929 548.21 499.95 543.96C495.806 539.88 492.656 535.12 490.335 529.68C488.014 524.07 486.854 518.29 486.854 512C486.854 505.71 488.014 499.93 490.335 494.32C492.656 488.88 495.806 484.12 499.785 480.04C503.763 475.79 508.405 472.56 513.876 470.18C519.181 467.97 524.983 466.78 531.117 466.78C543.054 466.78 553.498 471.03 562.284 479.87L578.034 464.06C571.9 457.77 564.771 452.84 556.813 449.27C548.856 445.7 540.235 444 531.117 444C521.999 444 513.379 445.87 505.421 449.44C497.298 453.01 490.335 457.77 484.201 464.06C478.233 470.18 473.425 477.32 469.944 485.48C466.462 493.81 464.639 502.65 464.639 512C464.639 521.18 466.462 529.85 469.944 538.18C473.425 546.51 478.233 553.65 484.201 559.94C490.335 566.06 497.298 570.99 505.421 574.56Z" fill="white"/>
<path d="M680.607 523.39C680.607 532.57 677.126 540.56 670.66 547.19C664.195 553.82 656.403 557.22 647.285 557.22C638.167 557.22 630.209 553.99 623.744 547.19C617.444 540.73 614.294 532.74 614.294 523.39V444H592.245V523.39C592.245 538.86 597.55 552.46 608.326 563.51C619.102 574.56 632.199 580 647.285 580C662.371 580 675.634 574.56 686.409 563.51C697.351 552.46 702.656 539.03 702.656 523.39H680.607Z" fill="white"/>
<path d="M765.293 514.89C770.598 507.24 773.085 498.74 773.085 489.22C773.085 476.81 768.774 466.27 760.154 457.26C751.533 448.42 741.089 444 728.987 444H670.797L682.236 464.23L684.723 466.78H728.987C734.955 466.78 740.094 468.99 744.404 473.41C748.881 477.83 751.036 483.1 751.036 489.22C751.036 495.51 748.881 500.95 744.404 505.37C740.094 509.79 734.955 512 728.987 512L709.259 511.83L747.72 580H773.085L745.896 531.21C753.688 527.98 760.154 522.54 765.293 514.89Z" fill="white"/>
<path d="M885.276 512L937 444H908.983L871.185 493.64L833.552 444H805.204L857.259 512L805.204 580H833.552L871.185 530.36V530.53L885.276 512ZM871.185 530.36L833.552 580L871.185 530.53V530.36Z" fill="white"/>
</g>
</svg>
