<svg width="512" height="512" viewBox="0 0 512 512" fill="none" xmlns="http://www.w3.org/2000/svg">
<g clip-path="url(#clip0_115_2)">
<rect width="512" height="512" fill="#2445F6"/>
<path d="M541.794 493.938L541.787 493.931L541.779 493.923L451.962 408.907C436.146 393.213 423.021 383.818 410.375 376.868C403.591 373.139 402.265 363.451 407.787 357.995C448.038 318.22 468.687 259.587 450.502 190.451C437.689 141.734 413.754 103.282 379.303 80.5948C344.814 57.882 300.074 51.1596 246.078 65.3618L98.5932 104.154C88.5186 106.803 81.4472 112.787 77.6874 120.972C73.9525 129.102 73.5769 139.195 76.4185 149.999L196.284 605.722C198.922 615.75 204.174 624.135 211.405 629.361C218.679 634.618 227.826 636.577 237.933 633.918C248.041 631.26 255.04 625.054 258.786 616.899C262.51 608.791 262.958 598.907 260.32 588.879L224.038 450.936C221.509 441.322 227.253 431.479 236.867 428.95L302.641 411.65C321.631 406.655 337.429 408.797 351.586 415.135C365.816 421.506 378.467 432.149 391.054 444.317L391.06 444.323L391.067 444.329L499.824 547.654C499.826 547.656 499.828 547.659 499.831 547.661C508.65 556.182 519.633 559.825 530.701 556.914C546.305 552.81 560.078 535.469 554.67 514.908C552.653 507.239 548.324 500.25 541.794 493.938ZM317.997 338.796L219.939 364.587C210.324 367.116 200.481 361.372 197.952 351.758L152.755 179.922C150.227 170.308 155.97 160.465 165.585 157.936L263.643 132.144C298.12 123.076 324.908 126.681 345.072 140.005C365.282 153.359 379.208 176.717 387.412 207.908C395.189 237.476 395.022 265.666 384.412 288.662C373.838 311.583 352.746 329.656 317.997 338.796Z" fill="white" stroke="white" stroke-width="4"/>
</g>
<defs>
<clipPath id="clip0_115_2">
<rect width="512" height="512" fill="white"/>
</clipPath>
</defs>
</svg>
