<svg width="342" height="412" viewBox="0 0 342 412" fill="none" xmlns="http://www.w3.org/2000/svg">
<path fill-rule="evenodd" clip-rule="evenodd" d="M129.103 51.9477C130.052 53.2201 131.726 53.7259 133.219 53.1856C146.273 48.4597 160.158 46.0968 174.871 46.0968C189.302 46.0968 202.562 48.0469 214.652 51.9469C226.742 55.847 237.532 61.5021 247.023 68.9123C256.643 76.3224 264.898 85.2926 271.788 95.8228C277.817 104.754 282.838 114.691 286.854 125.636C288.046 128.885 291.095 131.118 294.556 131.118H329.031C334.041 131.118 337.831 126.559 336.633 121.694C332.77 105.996 326.82 91.5216 318.784 78.2725C309.164 62.2821 297.139 48.5669 282.708 37.1266C268.408 25.5564 252.093 16.6513 233.762 10.4111C215.562 4.04102 195.932 0.855957 174.871 0.855957C149.261 0.855957 125.795 5.60105 104.475 15.0912C103.426 15.5582 102.384 16.0352 101.348 16.5223C97.7999 18.192 97.7102 23.1264 100.971 25.305C112.115 32.7504 121.492 41.6313 129.103 51.9477V51.9477ZM5.59275 176.961C3.23972 176.328 1.68126 174.089 1.94532 171.666C3.92913 153.467 7.55507 136.506 12.8231 120.783C21.4033 95.4328 33.4935 73.8524 49.0938 56.042C50.0131 54.9925 50.9424 53.9574 51.8816 52.9367C53.2308 51.4704 55.3416 50.9796 57.1859 51.734C62.7033 53.9909 67.8967 56.7171 72.766 59.9126C79.5844 64.3872 85.1978 69.6067 89.6061 75.5712C91.0158 77.4786 90.6808 80.1054 89.036 81.8141C79.2945 91.9337 70.9855 104.143 64.1091 118.443C55.4122 136.529 50.021 157.732 47.9355 182.054C47.6621 185.243 44.5591 187.433 41.4636 186.618C41.4074 186.603 41.3512 186.588 41.2951 186.573L5.59275 176.961ZM7.18832 223.563C3.90192 222.624 0.664017 225.187 0.895599 228.597C3.11512 261.28 10.276 290.148 22.3783 315.202C30.3685 331.599 40.0296 345.991 51.3618 358.378C52.685 359.824 54.7503 360.329 56.5828 359.633C57.3851 359.328 58.1819 359.014 58.9732 358.692C71.7554 353.376 82.2158 346.281 90.3545 337.408C92.1274 335.475 91.8976 332.502 90.0521 330.638C79.9453 320.431 71.3627 308.07 64.3041 293.557C56.6286 277.774 51.499 259.618 48.9153 239.087C48.6758 237.184 47.3963 235.562 45.5805 234.943C39.6859 232.935 33.5951 231.058 27.308 229.312L7.18832 223.563ZM137.2 359.637C135.064 358.937 132.711 359.673 131.341 361.455C123.747 371.333 114.265 379.914 102.896 387.196C99.5347 389.349 99.617 394.396 103.255 396.038C125.571 406.109 150.483 411.144 177.991 411.144C209.712 411.144 237.792 404.514 262.233 391.254C286.803 377.863 306.044 359.013 319.954 334.702C333.994 310.392 341.014 281.791 341.014 248.901V215C341.014 210.029 336.985 206 332.014 206L243.504 206C237.982 206 233.504 210.477 233.504 216L233.504 238.901C233.504 244.424 237.982 248.901 243.504 248.901L288.081 248.901C291.435 248.901 294.15 251.654 293.971 255.004C292.869 275.607 288.01 293.788 279.393 309.547C269.643 327.487 255.993 341.398 238.442 351.278C221.022 361.028 200.872 365.903 177.991 365.903C163.55 365.903 149.953 363.814 137.2 359.637Z" fill="white"/>
</svg>
