<svg width="341" height="412" viewBox="0 0 341 412" fill="none" xmlns="http://www.w3.org/2000/svg">
<path fill-rule="evenodd" clip-rule="evenodd" d="M128.71 51.9477C129.659 53.2201 131.334 53.7259 132.826 53.1856C145.881 48.4597 159.765 46.0968 174.479 46.0968C188.909 46.0968 202.169 48.0469 214.259 51.9469C226.35 55.847 237.14 61.5021 246.63 68.9123C256.25 76.3224 264.505 85.2926 271.396 95.8228C277.424 104.754 282.446 114.691 286.461 125.636C287.653 128.885 290.702 131.118 294.163 131.118H328.638C333.649 131.118 337.438 126.559 336.241 121.694C332.378 105.996 326.428 91.5216 318.391 78.2725C308.771 62.2821 296.746 48.5669 282.316 37.1266C268.015 25.5564 251.7 16.6513 233.37 10.4111C215.169 4.04102 195.539 0.855957 174.479 0.855957C148.868 0.855957 125.403 5.60105 104.082 15.0912C103.033 15.5582 101.991 16.0352 100.956 16.5223C97.4074 18.192 97.3176 23.1264 100.579 25.305C111.723 32.7504 121.1 41.6313 128.71 51.9477V51.9477ZM5.20017 176.961C2.84714 176.328 1.28868 174.089 1.55274 171.666C3.53655 153.467 7.16249 136.506 12.4306 120.783C21.0107 95.4328 33.1009 73.8524 48.7013 56.042C49.6206 54.9925 50.5498 53.9574 51.489 52.9367C52.8383 51.4704 54.949 50.9796 56.7933 51.734C62.3107 53.9909 67.5041 56.7171 72.3734 59.9126C79.1919 64.3872 84.8052 69.6067 89.2136 75.5712C90.6233 77.4786 90.2883 80.1054 88.6434 81.8141C78.9019 91.9337 70.5929 104.143 63.7165 118.443C55.0196 136.529 49.6284 157.732 47.5429 182.054C47.2695 185.243 44.1665 187.433 41.071 186.618C41.0148 186.603 40.9586 186.588 40.9025 186.573L5.20017 176.961ZM6.79574 223.563C3.50934 222.624 0.271439 225.187 0.503021 228.597C2.72255 261.28 9.88345 290.148 21.9857 315.202C29.9759 331.599 39.6371 345.991 50.9692 358.378C52.2924 359.824 54.3577 360.329 56.1903 359.633C56.9925 359.328 57.7893 359.014 58.5806 358.692C71.3628 353.376 81.8232 346.281 89.9619 337.408C91.7349 335.475 91.505 332.502 89.6595 330.638C79.5528 320.431 70.9701 308.07 63.9115 293.557C56.236 277.774 51.1064 259.618 48.5227 239.087C48.2832 237.184 47.0037 235.562 45.188 234.943C39.2934 232.935 33.2025 231.058 26.9154 229.312L6.79574 223.563ZM136.808 359.637C134.671 358.937 132.319 359.673 130.948 361.455C123.355 371.333 113.873 379.914 102.503 387.196C99.1421 389.349 99.2244 394.396 102.863 396.038C125.178 406.109 150.09 411.144 177.599 411.144C209.319 411.144 237.4 404.514 261.84 391.254C286.411 377.863 305.651 359.013 319.561 334.702C333.602 310.392 340.622 281.791 340.622 248.901V215C340.622 210.029 336.592 206 331.622 206L243.112 206C237.589 206 233.112 210.477 233.112 216L233.112 238.901C233.112 244.424 237.589 248.901 243.112 248.901L287.688 248.901C291.043 248.901 293.758 251.654 293.578 255.004C292.476 275.607 287.617 293.788 279.001 309.547C269.25 327.487 255.6 341.398 238.05 351.278C220.63 361.028 200.479 365.903 177.599 365.903C163.157 365.903 149.56 363.814 136.808 359.637Z" fill="#FF5029"/>
</svg>
