<svg width="251" height="251" viewBox="0 0 251 251" fill="none" xmlns="http://www.w3.org/2000/svg">
<path d="M191.953 0.315063H59.1406C26.7802 0.315063 0.546875 26.5484 0.546875 58.9088V191.721C0.546875 224.082 26.7802 250.315 59.1406 250.315H191.953C224.314 250.315 250.547 224.082 250.547 191.721V58.9088C250.547 26.5484 224.314 0.315063 191.953 0.315063Z" fill="#330000"/>
<path d="M121.38 149.078H82.6297L74.7128 173.557C74.5047 174.495 73.6717 175.12 72.7342 175.015H53.1503C52.0048 175.015 51.6922 174.39 52.0047 173.14L85.5467 76.5778C85.8592 75.5367 86.1717 74.3903 86.5878 73.1403C87.0048 70.9528 87.2128 68.6617 87.2128 66.3697C87.1092 65.8492 87.5253 65.3278 88.0467 65.2242H115.025C115.859 65.2242 116.275 65.5367 116.38 66.0573L154.4 173.349C154.713 174.495 154.4 175.015 153.359 175.015H131.588C130.859 175.12 130.13 174.599 129.922 173.87L121.38 149.078ZM88.6717 127.932H115.13C114.505 125.745 113.672 123.14 112.734 120.432C111.797 117.62 110.859 114.599 109.922 111.474C108.88 108.245 107.942 105.12 106.9 101.89C105.859 98.6617 104.922 95.6403 104.088 92.6197C103.255 89.7037 102.525 86.9947 101.797 84.4947H101.588C100.65 88.9742 99.5047 93.4537 98.0467 97.9322C96.4842 102.932 94.9217 108.14 93.2547 113.349C91.9094 118.266 90.3807 123.13 88.6717 127.932ZM177.63 83.4528C174.192 83.5573 170.859 82.2028 168.359 79.8073C165.964 77.2028 164.714 73.7653 164.817 70.2242C164.714 66.6822 166.067 63.3492 168.567 60.9528C171.067 58.5572 174.401 57.3073 177.839 57.3073C181.901 57.3073 185.026 58.5572 187.317 60.9528C189.626 63.4783 190.859 66.8042 190.755 70.2242C190.859 73.7653 189.609 77.2028 187.109 79.8073C184.714 82.3073 181.172 83.6617 177.63 83.4528ZM165.964 173.87V93.6617C165.964 92.6197 166.38 92.2028 167.317 92.2028H187.942C188.88 92.2028 189.297 92.7242 189.297 93.6617V173.87C189.297 175.015 188.88 175.537 187.942 175.537H167.526C166.484 175.537 165.964 174.912 165.964 173.87Z" fill="#FF9A00"/>
</svg>
