<svg width="251" height="251" viewBox="0 0 251 251" fill="none" xmlns="http://www.w3.org/2000/svg">
<path d="M191.953 0.315063H59.1406C26.7802 0.315063 0.546875 26.5484 0.546875 58.9088V191.721C0.546875 224.082 26.7802 250.315 59.1406 250.315H191.953C224.314 250.315 250.547 224.082 250.547 191.721V58.9088C250.547 26.5484 224.314 0.315063 191.953 0.315063Z" fill="#00979C"/>
<path fill-rule="evenodd" clip-rule="evenodd" d="M19.1016 133.628V117.595C19.4375 117.428 19.4375 117.094 19.4375 116.76C24.4795 94.8834 38.2617 81.6901 60.1113 76.5123C61.96 76.0114 63.9766 76.1783 65.8262 75.5104H76.582C76.75 75.8444 77.2549 75.6774 77.5908 75.6774C88.3477 76.8463 98.0957 80.6871 106.667 87.3678C114.062 92.8785 119.777 99.8932 124.987 107.408C125.659 108.41 125.996 108.41 126.668 107.408C129.693 103.066 132.887 98.8912 136.584 95.0504C145.492 85.5309 156.249 78.8502 169.358 76.5123C171.207 76.0114 173.392 76.1783 175.241 75.5104H185.661C185.829 75.8444 186.166 75.6774 186.502 75.6774C189.695 76.0114 192.721 76.6793 195.746 77.5143C218.268 84.028 234.234 104.569 232.89 127.783C231.881 147.323 221.965 161.351 204.653 170.202C196.082 174.879 186.67 176.047 176.922 175.88C164.148 175.714 153.056 171.371 143.476 163.021C136.752 157.175 131.542 150.162 126.668 142.813C125.996 141.811 125.659 141.978 124.987 142.98C121.962 147.49 118.769 151.999 115.071 156.34C108.517 163.689 100.953 169.701 91.541 172.875C79.9434 176.882 68.1787 177.049 56.4141 173.877C39.4385 169.033 27.8418 158.344 21.4551 141.978C20.4463 139.306 19.9414 136.3 19.1016 133.628ZM72.5488 158.177C82.1289 158.511 90.3643 155.338 97.4228 148.826C104.65 142.145 109.86 133.795 115.071 125.612C115.239 125.111 115.239 124.777 114.903 124.276C110.533 117.428 105.995 110.582 99.9443 104.903C88.3477 93.8805 74.7334 90.2067 59.4395 95.0494C46.834 99.2252 38.7656 108.076 36.917 121.436C35.0684 133.962 39.9424 143.982 50.0264 151.498C56.75 156.34 64.3135 158.344 72.5488 158.177ZM179.106 158.177C182.804 158.177 186.502 158.01 190.031 157.008C203.309 153.001 212.049 144.817 214.57 131.123C217.091 117.595 211.881 106.74 200.452 99.0582C187.847 90.3737 169.526 91.2086 156.753 100.728C148.182 107.074 142.467 115.591 136.752 124.443C136.416 124.944 136.584 125.278 136.752 125.779C141.29 132.96 145.828 140.141 151.711 146.32C159.105 154.17 168.014 158.678 179.106 158.177Z" fill="white"/>
<path fill-rule="evenodd" clip-rule="evenodd" d="M72.3809 120.267C77.7588 120.267 83.3057 120.434 88.6836 120.267C90.0283 120.267 90.1963 120.601 90.1963 121.937C90.0281 123.436 90.0281 124.948 90.1963 126.447C90.3643 127.783 90.0283 128.117 88.5156 128.117H67.002C63.3047 128.117 59.6074 127.95 55.9092 128.117C54.7324 128.117 54.3965 127.783 54.3965 126.447C54.5645 124.944 54.5645 123.441 54.3965 121.77C54.3965 120.601 54.7324 120.267 55.9102 120.267C61.2881 120.434 66.834 120.267 72.3809 120.267ZM178.267 109.579C179.61 109.579 180.955 109.746 182.132 109.579C182.973 109.579 183.309 109.913 183.309 110.748C183.141 113.087 183.309 115.424 183.141 117.762C183.141 118.931 183.477 119.265 184.653 119.265C186.838 119.098 189.191 119.265 191.544 119.098C192.553 119.098 192.889 119.265 192.889 120.434V128.117C192.889 128.952 192.553 129.286 191.712 129.286C189.359 129.119 187.006 129.286 184.485 129.119C183.477 129.119 183.141 129.453 183.141 130.455C183.309 132.793 183.141 135.13 183.309 137.469C183.309 138.471 182.973 138.972 181.964 138.972C179.445 138.805 176.919 138.805 174.4 138.972C173.393 138.972 173.056 138.638 173.056 137.636C173.224 135.13 173.056 132.793 173.224 130.288C173.224 129.453 172.888 129.119 172.048 129.119C169.694 129.286 167.342 129.119 164.988 129.286C163.644 129.286 163.476 128.785 163.476 127.783C163.476 125.445 163.644 123.106 163.476 120.768C163.308 119.432 163.98 119.098 165.156 119.098C167.51 119.265 169.694 119.098 172.048 119.265C172.888 119.265 173.224 118.931 173.224 118.096C173.056 115.758 173.224 113.254 173.056 110.916C173.056 109.913 173.393 109.579 174.4 109.579C175.745 109.746 176.922 109.579 178.267 109.579Z" fill="white"/>
</svg>
