<svg width="251" height="251" viewBox="0 0 251 251" fill="none" xmlns="http://www.w3.org/2000/svg">
<path d="M191.953 0.315063H59.1406C26.7802 0.315063 0.546875 26.5484 0.546875 58.9088V191.721C0.546875 224.082 26.7802 250.315 59.1406 250.315H191.953C224.314 250.315 250.547 224.082 250.547 191.721V58.9088C250.547 26.5484 224.314 0.315063 191.953 0.315063Z" fill="#0277BD"/>
<path d="M53.04 100.56L55.835 131.754H125.641V100.56H53.04ZM125.64 37.4244H47.4219L50.2578 68.6178H125.64V37.4244ZM125.64 214.027V181.573L125.503 181.609L90.7627 172.229L88.542 147.35H57.2285L61.5986 196.329L125.496 214.067L125.64 214.027Z" fill="#EBEBEB"/>
<path d="M163.943 131.754L160.322 172.209L125.532 181.599V214.051L189.48 196.329L189.949 191.058L197.279 108.937L198.04 100.56L203.672 37.4244H125.532V68.6178H169.486L166.648 100.56H125.532V131.754H163.943Z" fill="white"/>
</svg>
