<svg width="168" height="251" viewBox="0 0 168 251" fill="none" xmlns="http://www.w3.org/2000/svg">
<path d="M41.8906 250.315C64.9355 250.315 83.6386 231.648 83.6386 208.648V166.982H41.8906C18.8457 166.982 0.142578 185.648 0.142578 208.648C0.142578 231.648 18.8457 250.315 41.8906 250.315Z" fill="#0ACF83"/>
<path d="M0.142578 125.315C0.142578 102.315 18.8457 83.6482 41.8906 83.6482H83.6386V166.981H41.8906C18.8457 166.981 0.142578 148.315 0.142578 125.315Z" fill="#A259FF"/>
<path d="M0.142578 41.9816C0.142578 18.9816 18.8457 0.314941 41.8906 0.314941H83.6386V83.6482H41.8906C18.8457 83.6482 0.142578 64.9816 0.142578 41.9816Z" fill="#F24E1E"/>
<path d="M83.6387 0.314941H125.387C148.432 0.314941 167.135 18.9816 167.135 41.9816C167.135 64.9816 148.432 83.6482 125.387 83.6482H83.6387V0.314941Z" fill="#FF7262"/>
<path d="M167.135 125.315C167.135 148.315 148.432 166.981 125.387 166.981C102.342 166.981 83.6387 148.315 83.6387 125.315C83.6387 102.315 102.342 83.6482 125.387 83.6482C148.432 83.6482 167.135 102.315 167.135 125.315Z" fill="#1ABCFE"/>
</svg>
