<svg width="251" height="251" viewBox="0 0 251 251" fill="none" xmlns="http://www.w3.org/2000/svg">
<path d="M191.953 0.652832H59.1406C26.7802 0.652832 0.546875 26.8861 0.546875 59.2466V192.059C0.546875 224.42 26.7802 250.653 59.1406 250.653H191.953C224.314 250.653 250.547 224.42 250.547 192.059V59.2466C250.547 26.8861 224.314 0.652832 191.953 0.652832Z" fill="#E14E1D"/>
<path d="M47.4219 37.7622L55.8301 132.091H163.945L160.317 172.55L125.507 181.962L90.7617 172.564L88.4385 146.585H57.1289L61.6064 196.665L125.5 214.411L189.475 196.665L198.052 100.902H84.3594L81.5049 68.9585H200.878L203.672 37.7622H47.4219Z" fill="white"/>
<path d="M125.547 37.7622H47.4219L55.8301 132.091H125.547V100.902H84.3594L81.5049 68.9585H125.547V37.7622ZM125.547 181.949L125.507 181.962L90.7617 172.564L88.4385 146.585H57.1289L61.6064 196.665L125.5 214.411L125.548 214.397V181.949H125.547Z" fill="#EBEBEB"/>
</svg>
