<svg width="251" height="251" viewBox="0 0 251 251" fill="none" xmlns="http://www.w3.org/2000/svg">
<path d="M0.546875 50.0168C0.546875 22.4026 22.9326 0.0168457 50.5469 0.0168457H200.547C228.161 0.0168457 250.547 22.4026 250.547 50.0168V200.017C250.547 227.631 228.161 250.017 200.547 250.017H50.5469C22.9326 250.017 0.546875 227.631 0.546875 200.017V50.0168Z" fill="#F5DE19"/>
<path d="M164.008 195.754C165.847 199.488 168.703 202.627 172.248 204.808C175.793 206.99 179.882 208.125 184.045 208.084C192.444 208.084 197.816 203.884 197.816 198.065C197.816 191.13 192.298 188.648 183.05 184.603L177.98 182.429C163.338 176.195 153.628 168.388 153.628 151.882C153.628 136.677 165.187 125.094 183.32 125.094C189.19 124.671 195.055 125.984 200.183 128.872C205.311 131.759 209.476 136.093 212.157 141.332L196.305 151.465C195.273 148.868 193.475 146.645 191.15 145.093C188.826 143.54 186.084 142.731 183.289 142.773C182.07 142.651 180.838 142.784 179.673 143.164C178.508 143.544 177.435 144.163 176.522 144.981C175.61 145.799 174.877 146.797 174.372 147.914C173.866 149.03 173.599 150.24 173.587 151.465C173.587 157.546 177.355 160.012 186.056 163.796L191.127 165.969C208.358 173.359 218.099 180.888 218.099 197.819C218.099 216.075 203.757 226.078 184.499 226.078C176.996 226.556 169.514 224.852 162.957 221.173C156.4 217.493 151.048 211.994 147.547 205.34L164.008 195.754ZM92.378 197.511C95.5607 203.159 98.4583 207.937 105.425 207.937C112.083 207.937 116.291 205.333 116.291 195.199V126.25H136.566V195.468C136.566 216.46 124.236 226.016 106.288 226.016C99.9437 226.363 93.643 224.782 88.2142 221.481C82.7853 218.18 78.4824 213.313 75.8711 207.521L92.378 197.511Z" fill="black"/>
</svg>
