<svg width="251" height="251" viewBox="0 0 251 251" fill="none" xmlns="http://www.w3.org/2000/svg">
<path d="M191.953 0.314941H59.1406C26.7802 0.314941 0.546875 26.5483 0.546875 58.9087V191.721C0.546875 224.082 26.7802 250.315 59.1406 250.315H191.953C224.314 250.315 250.547 224.082 250.547 191.721V58.9087C250.547 26.5483 224.314 0.314941 191.953 0.314941Z" fill="#242938"/>
<path d="M48.5527 98.2114H76.2949C84.4375 98.2798 90.3379 100.627 93.9961 105.25C97.6543 109.874 98.8613 116.188 97.6191 124.194C97.1367 127.852 96.0664 131.44 94.4101 134.959C92.8223 138.479 90.6152 141.653 87.7852 144.483C84.334 148.071 80.6426 150.348 76.709 151.315C72.7754 152.282 68.7031 152.764 64.4941 152.764H52.0723L48.1387 172.432H33.75L48.5527 98.2114ZM60.6641 110.012L54.4531 141.067C54.8672 141.135 55.2812 141.17 55.6953 141.17H57.1445C63.7695 141.239 69.291 140.584 73.707 139.204C78.123 137.754 81.0918 132.717 82.6094 124.09C83.8516 116.844 82.6094 112.668 78.8828 111.565C75.2246 110.461 70.6367 109.944 65.1152 110.012C64.2871 110.081 63.4941 110.116 62.7344 110.116H60.5605L60.6641 110.012ZM114.01 78.4399H128.295L124.258 98.2114H137.094C144.133 98.3501 149.377 99.7993 152.828 102.559C156.348 105.319 157.383 110.565 155.934 118.293L148.998 152.764H134.506L141.131 119.846C141.82 116.395 141.613 113.946 140.51 112.497C139.406 111.047 137.025 110.323 133.367 110.323L121.877 110.219L113.389 152.764H99.1035L114.01 78.4399ZM171.273 98.2114H199.016C207.158 98.2798 213.059 100.627 216.717 105.25C220.375 109.874 221.582 116.188 220.34 124.194C219.857 127.852 218.787 131.44 217.131 134.959C215.543 138.479 213.336 141.653 210.506 144.483C207.055 148.071 203.363 150.348 199.43 151.315C195.496 152.282 191.424 152.764 187.215 152.764H174.793L170.859 172.432H156.471L171.273 98.2114ZM183.385 110.012L177.174 141.067C177.588 141.135 178.002 141.17 178.416 141.17H179.865C186.49 141.239 192.012 140.584 196.428 139.204C200.844 137.754 203.812 132.717 205.33 124.09C206.572 116.844 205.33 112.668 201.604 111.565C197.945 110.461 193.357 109.944 187.836 110.012C187.008 110.081 186.215 110.116 185.455 110.116H183.281L183.385 110.012Z" fill="white"/>
</svg>
