<svg width="251" height="251" viewBox="0 0 251 251" fill="none" xmlns="http://www.w3.org/2000/svg">
<path d="M191.549 0.314941H58.7363C26.3759 0.314941 0.142578 26.5483 0.142578 58.9087V191.721C0.142578 224.082 26.3759 250.315 58.7363 250.315H191.549C223.909 250.315 250.143 224.082 250.143 191.721V58.9087C250.143 26.5483 223.909 0.314941 191.549 0.314941Z" fill="#001E36"/>
<path d="M56.3926 174.182V66.9946C56.3926 66.2651 56.7051 65.8491 57.4346 65.8491C59.2051 65.8491 60.8721 65.8491 63.2676 65.7446C65.7676 65.6401 68.3721 65.6401 71.1846 65.5366C73.9971 65.4321 77.0176 65.4321 80.2471 65.3276C83.4756 65.2241 86.6006 65.2241 89.7256 65.2241C98.2676 65.2241 105.351 66.2651 111.185 68.4526C116.414 70.2285 121.182 73.1465 125.143 76.9946C128.499 80.3623 131.092 84.4121 132.747 88.8696C134.31 93.2446 135.143 97.7241 135.143 102.412C135.143 111.37 133.06 118.765 128.893 124.599C124.726 130.432 118.893 134.807 112.122 137.307C105.038 139.912 97.2256 140.849 88.6846 140.849C86.1846 140.849 84.5176 140.849 83.4756 140.745C82.4346 140.64 80.9756 140.64 78.9971 140.64V174.078C79.1006 174.807 78.5801 175.432 77.8506 175.537H57.6426C56.8096 175.537 56.3926 175.12 56.3926 174.182ZM79.1006 85.9526V120.953C80.5596 121.057 81.9131 121.162 83.1631 121.162H88.6846C92.7471 121.162 96.8096 120.537 100.663 119.287C103.997 118.349 106.913 116.37 109.205 113.765C111.393 111.162 112.435 107.62 112.435 103.037C112.532 99.7813 111.701 96.5654 110.038 93.7651C108.268 91.0571 105.768 88.9741 102.747 87.8276C98.8926 86.2651 94.7256 85.6401 90.4551 85.7446C87.7471 85.7446 85.3506 85.7446 83.3721 85.8491C81.2881 85.7446 79.8301 85.8491 79.1006 85.9526ZM200.143 114.599C197.018 112.932 193.685 111.787 190.143 111.057C186.288 110.224 182.435 109.703 178.476 109.703C176.393 109.599 174.205 109.912 172.226 110.432C170.872 110.745 169.726 111.474 168.997 112.515C168.476 113.349 168.163 114.39 168.163 115.328C168.163 116.265 168.58 117.203 169.205 118.037C170.143 119.182 171.393 120.12 172.747 120.849C175.162 122.1 177.63 123.247 180.143 124.287C185.768 126.162 191.185 128.765 196.185 131.89C199.622 134.078 202.435 136.995 204.413 140.537C206.08 143.87 206.913 147.515 206.81 151.265C206.913 156.162 205.455 161.057 202.747 165.12C199.841 169.278 195.787 172.499 191.08 174.39C185.976 176.578 179.726 177.724 172.226 177.724C167.435 177.724 162.747 177.307 158.06 176.37C154.386 175.735 150.813 174.614 147.435 173.037C146.705 172.62 146.185 171.89 146.288 171.057V152.932C146.288 152.62 146.393 152.203 146.705 151.995C147.018 151.787 147.33 151.89 147.643 152.099C151.705 154.495 155.976 156.162 160.56 157.203C164.518 158.245 168.685 158.765 172.851 158.765C176.81 158.765 179.622 158.245 181.497 157.307C183.163 156.578 184.31 154.807 184.31 152.932C184.31 151.474 183.476 150.12 181.81 148.765C180.143 147.412 176.705 145.849 171.601 143.87C166.365 142.025 161.392 139.503 156.81 136.37C153.545 134.043 150.841 131.018 148.893 127.515C147.226 124.182 146.393 120.537 146.497 116.89C146.497 112.412 147.747 108.14 150.038 104.287C152.643 100.12 156.497 96.7866 160.976 94.7026C165.872 92.2026 172.018 91.0571 179.413 91.0571C183.685 91.0571 188.06 91.3696 192.33 91.9946C195.455 92.4116 198.476 93.2446 201.288 94.3901C201.705 94.4946 202.122 94.9116 202.33 95.3276C202.435 95.7446 202.538 96.1616 202.538 96.5776V113.557C202.538 113.974 202.33 114.39 202.018 114.599C201.08 114.807 200.56 114.807 200.143 114.599Z" fill="#31A8FF"/>
</svg>
