<svg width="251" height="251" viewBox="0 0 251 251" fill="none" xmlns="http://www.w3.org/2000/svg">
<path d="M191.953 0.315063H59.1406C26.7802 0.315063 0.546875 26.5484 0.546875 58.9088V191.721C0.546875 224.082 26.7802 250.315 59.1406 250.315H191.953C224.314 250.315 250.547 224.082 250.547 191.721V58.9088C250.547 26.5484 224.314 0.315063 191.953 0.315063Z" fill="#F4F2ED"/>
<path d="M124.843 28.6354C75.2607 28.6354 78.3564 50.1373 78.3564 50.1373L78.4121 72.4127H125.728V79.1022H59.6182C59.6182 79.1022 27.8906 75.5026 27.8906 125.531C27.8906 175.56 55.583 173.787 55.583 173.787H72.1103V150.571C72.1103 150.571 71.2197 122.879 99.3613 122.879H146.289C146.289 122.879 172.655 123.304 172.655 97.3961V54.5592C172.655 54.5592 176.658 28.6354 124.843 28.6354ZM98.7529 43.6149C99.8712 43.6137 100.979 43.8331 102.012 44.2605C103.045 44.6879 103.984 45.3149 104.775 46.1056C105.566 46.8963 106.193 47.8352 106.62 48.8685C107.047 49.9019 107.267 51.0093 107.266 52.1276C107.267 53.2457 107.047 54.3531 106.62 55.3863C106.192 56.4195 105.565 57.3583 104.775 58.1489C103.984 58.9395 103.045 59.5664 102.012 59.9937C100.978 60.4211 99.8711 60.6404 98.7529 60.6393C97.6349 60.6403 96.5276 60.4208 95.4944 59.9935C94.4613 59.5661 93.5225 58.9391 92.7319 58.1485C91.9413 57.358 91.3144 56.4192 90.887 55.3861C90.4596 54.3529 90.2402 53.2456 90.2412 52.1276C90.2401 51.0094 90.4594 49.902 90.8868 48.8688C91.3141 47.8355 91.941 46.8966 92.7316 46.1059C93.5222 45.3152 94.461 44.6882 95.4942 44.2608C96.5274 43.8333 97.6348 43.6138 98.7529 43.6149Z" fill="url(#paint0_linear_723_33)"/>
<path d="M126.251 222.93C175.833 222.93 172.738 201.429 172.738 201.429L172.682 179.153H125.367V172.465H191.476C191.476 172.465 223.204 176.063 223.204 126.034C223.204 76.0046 195.511 77.779 195.511 77.779H178.984V100.995C178.984 100.995 179.874 128.687 151.733 128.687H104.805C104.805 128.687 78.4379 128.26 78.4379 154.169V197.007C78.4379 197.007 74.435 222.93 126.251 222.93ZM152.341 207.951C151.223 207.952 150.116 207.733 149.082 207.305C148.049 206.878 147.11 206.251 146.32 205.461C145.529 204.67 144.902 203.731 144.474 202.698C144.047 201.665 143.828 200.557 143.829 199.439C143.827 198.321 144.047 197.213 144.474 196.18C144.902 195.147 145.529 194.208 146.319 193.417C147.11 192.627 148.049 192 149.082 191.572C150.116 191.145 151.223 190.925 152.341 190.926C153.459 190.925 154.567 191.145 155.6 191.572C156.633 192 157.572 192.627 158.363 193.417C159.154 194.208 159.781 195.147 160.208 196.18C160.635 197.214 160.855 198.321 160.854 199.439C160.855 200.557 160.635 201.665 160.208 202.698C159.78 203.731 159.153 204.67 158.363 205.46C157.572 206.251 156.633 206.878 155.6 207.305C154.567 207.732 153.459 207.952 152.341 207.951Z" fill="url(#paint1_linear_723_33)"/>
<defs>
<linearGradient id="paint0_linear_723_33" x1="46.6602" y1="46.1119" x2="143.45" y2="141.936" gradientUnits="userSpaceOnUse">
<stop stop-color="#387EB8"/>
<stop offset="1" stop-color="#366994"/>
</linearGradient>
<linearGradient id="paint1_linear_723_33" x1="106.071" y1="107.644" x2="210.012" y2="205.903" gradientUnits="userSpaceOnUse">
<stop stop-color="#FFE052"/>
<stop offset="1" stop-color="#FFC331"/>
</linearGradient>
</defs>
</svg>
