<svg width="251" height="251" viewBox="0 0 251 251" fill="none" xmlns="http://www.w3.org/2000/svg">
<path d="M191.953 0.652832H59.1406C26.7802 0.652832 0.546875 26.8861 0.546875 59.2466V192.059C0.546875 224.42 26.7802 250.653 59.1406 250.653H191.953C224.314 250.653 250.547 224.42 250.547 192.059V59.2466C250.547 26.8861 224.314 0.652832 191.953 0.652832Z" fill="#242938"/>
<mask id="mask0_723_55" style="mask-type:luminance" maskUnits="userSpaceOnUse" x="37" y="37" width="177" height="177">
<path d="M37.6562 37.7622H213.438V213.543H37.6562V37.7622Z" fill="white"/>
</mask>
<g mask="url(#mask0_723_55)">
<path fill-rule="evenodd" clip-rule="evenodd" d="M199.572 174.686C190.012 174.42 182.595 175.4 176.379 178.015C174.589 178.734 171.717 178.734 171.481 180.987C172.438 181.932 172.553 183.479 173.392 184.789C174.824 187.167 177.338 190.37 179.608 192.032L187.258 197.499C191.92 200.348 197.18 202.013 201.722 204.864C204.353 206.529 206.982 208.667 209.612 210.451C210.952 211.402 211.764 212.949 213.439 213.54V213.181C212.603 212.115 212.361 210.572 211.528 209.378L207.938 205.935C204.474 201.302 200.167 197.259 195.505 193.936C191.679 191.322 183.314 187.758 181.759 183.364L181.524 183.098C184.15 182.832 187.258 181.907 189.771 181.195C193.838 180.129 197.541 180.364 201.722 179.295L207.464 177.631V176.566C205.312 174.428 203.758 171.575 201.488 169.558C195.393 164.33 188.693 159.22 181.759 154.944C178.054 152.569 173.271 151.021 169.326 149.005C167.888 148.291 165.5 147.935 164.664 146.747C162.507 144.138 161.315 140.689 159.761 137.598L149.959 116.926C147.808 112.292 146.489 107.658 143.863 103.382C131.548 83.1838 118.156 70.9485 97.5939 58.9465C93.173 56.4514 87.9132 55.3782 82.3204 54.0735L73.3556 53.595C71.4396 52.7639 69.5284 50.5051 67.8546 49.4348C61.0401 45.1575 43.4659 35.8918 38.4405 48.1038C35.213 55.8254 43.2247 63.428 45.9444 67.3508C47.9806 70.0832 50.6066 73.1711 52.045 76.261C52.8487 78.2795 53.1173 80.4202 53.9562 82.5588C55.8663 87.7854 57.6612 93.6096 60.172 98.4827C61.5118 100.978 62.9191 103.595 64.5929 105.851C65.5499 107.182 67.2247 107.752 67.5812 109.89C65.9064 112.268 65.7911 115.828 64.8341 118.803C60.5284 132.229 62.2032 148.862 68.2989 158.746C70.215 161.715 74.7296 168.252 80.8556 165.755C86.2355 163.616 85.0353 156.845 86.589 150.904C86.9503 149.48 86.7101 148.529 87.4249 147.575V147.842L92.3282 157.702C96.0343 163.524 102.492 169.584 107.869 173.626C110.736 175.765 113.009 179.45 116.594 180.755V180.396H116.359C115.64 179.33 114.563 178.851 113.607 178.02C111.455 175.882 109.065 173.267 107.39 170.892C102.371 164.239 97.9503 156.871 94.003 149.269C92.088 145.586 90.4132 141.546 88.8644 137.864C88.1407 136.437 88.1407 134.295 86.9484 133.587C85.1525 136.197 82.5275 138.46 81.2062 141.666C78.9337 146.774 78.6983 153.072 77.8624 159.607C77.38 159.726 77.5939 159.607 77.38 159.872C73.5587 158.925 72.2403 154.999 70.8077 151.676C67.2218 143.24 66.6212 129.697 69.7296 119.953C70.5655 117.458 74.1564 109.616 72.7228 107.24C72.0001 104.983 69.6144 103.678 68.296 101.894C66.7423 99.636 65.0734 96.7864 63.9962 94.2913C61.129 87.634 59.6954 80.2707 56.5841 73.6174C55.1456 70.5276 52.6378 67.3186 50.6036 64.47C48.3312 61.261 45.8263 59.0022 44.0314 55.2024C43.4337 53.8713 42.5978 51.7571 43.5538 50.3293C43.7901 49.3791 44.2716 48.9983 45.2237 48.7854C46.7765 47.4534 51.2042 49.1418 52.7579 49.8498C57.1788 51.634 60.8849 53.2961 64.5909 55.7883C66.2657 56.9758 68.0607 59.2346 70.212 59.8313H72.7257C76.5519 60.6614 80.8526 60.0969 84.4347 61.1623C90.7726 63.1858 96.5089 66.1526 101.653 69.3635C117.313 79.2248 130.228 93.2444 138.951 109.999C140.385 112.732 140.983 115.227 142.301 118.078C144.815 123.903 147.923 129.841 150.428 135.547C152.942 141.131 155.331 146.838 158.917 151.471C160.712 153.966 167.882 155.271 171.109 156.578C173.501 157.644 177.204 158.603 179.361 159.907C183.423 162.403 187.488 165.254 191.312 167.987C193.222 169.408 199.203 172.38 199.559 174.75L199.572 174.686ZM77.6554 71.4407C76.0041 71.4262 74.3579 71.6257 72.7579 72.0344V72.301H72.9933C73.9503 74.2024 75.6251 75.51 76.8194 77.1741L79.5714 82.8772L79.8077 82.6116C81.4816 81.4241 82.3204 79.5227 82.3204 76.6741C81.6026 75.843 81.4845 75.009 80.8868 74.178C80.1691 72.9905 78.6153 72.3938 77.6554 71.4465V71.4407Z" fill="white"/>
</g>
</svg>
